<svg version="1.1" id="Engineered--Icon" xmlns="http://www.w3.org/2000/svg" xmlns:xlink="http://www.w3.org/1999/xlink" x="0px"
	 y="0px" viewBox="0 0 765 1024" enable-background="new 0 0 765 1024" xml:space="preserve">
<path id="Fill-2" fill="#EC1C2C" d="M412.1,1021.2c-12.7,0-24.9-3.3-35.4-9.4l-238-138.4c-22.1-12.7-35.4-36.5-35.4-62V209.8
	c0-25.5,13.8-49.3,35.4-62L376.1,9.4c21.6-12.7,49.8-12.7,71.4,0L685,147.8c22.1,12.7,35.4,36.5,35.4,62v601.1
	c0,25.5-13.8,49.3-35.4,62l-237.5,137.8C436.5,1017.9,424.3,1021.2,412.1,1021.2L412.1,1021.2z M412.1,17.2
	c-9.4,0-18.8,2.8-27.1,7.2L147,162.7c-16.6,10-27.1,27.7-27.1,47v601.1c0,19.4,10.5,37.6,27.1,47l238,138.4
	c16.6,9.4,37.6,9.4,54.2,0l237.5-137.8c16.6-10,27.1-27.7,27.1-47V209.8c0-19.4-10.5-37.6-27.1-47L439.2,24.4
	C430.9,19.9,421.5,17.2,412.1,17.2L412.1,17.2z"/>
<path id="top-lin" fill="#EC1C2C" d="M721,345.9v-19.4L283.7,70.3l-8.9,14.9L721,345.9"/>
<path fill="#EC1C2C" d="M412.1,312.7L111.5,487.6v25.5v253.5v68.6c0,0,243,177.1,300.6,177.1s300.6-173.2,300.6-173.2v-72V513.1
	v-25.5L412.1,312.7z"/>
<path id="Fill-5" fill="#EC1C2C" d="M412.1,1018.1L102.7,768.3V481.6l308.9-178.3l308.9,178.3v286.7L412.1,1018.1L412.1,1018.1z
	 M119.9,760.1l291.7,236.1l291.7-236.1V491.5L412.1,322.6L119.9,491.5V760.1L119.9,760.1z"/>
<path id="bottom-line" fill="#EC1C2C" d="M407.7,319.9L142.5,166.1l8.3-14.9L416,305L407.7,319.9"/>
<path id="Fill-7" fill="#58595B" d="M210.1,241.3l-16.6,52h-54.8l43.7,32.1l-16.6,52l43.7-32.1l43.7,32.1l-16.6-52l44.3-32.1h-54.2
	L210.1,241.3"/>
<g id="Proudly">
	<path id="Fill-8" fill="#FFFFFF" d="M209.5,517h-17.7v31h-11.6v-78.6h29.3c14.9,0,24.9,10,24.9,23.8C234.4,507,224.5,517,209.5,517
		L209.5,517z M208.4,480.4h-17.2v26h17.2c8.3,0,13.8-5,13.8-12.7C222.3,484.9,216.7,480.4,208.4,480.4L208.4,480.4z"/>
	<path id="Fill-9" fill="#FFFFFF" d="M291.4,548l-16.6-33.2h-14.9V548h-11.6v-78.6h29.9c14.9,0,24.4,9.4,24.4,22.7
		c0,11.1-6.6,18.3-15.5,21l17.7,34.9L291.4,548L291.4,548z M277.6,480.4h-17.7v24.4h17.7c7.7,0,13.3-4.4,13.3-12.2
		C290.9,484.9,285.9,480.4,277.6,480.4L277.6,480.4z"/>
	<path id="Fill-10" fill="#FFFFFF" d="M365.6,540.2c-5.5,5.5-12.2,8.3-20.5,8.3s-14.9-2.8-20.5-8.3c-7.7-7.7-7.7-16.6-7.7-31.6
		c0-14.9,0-23.8,7.7-31.6c5.5-5.5,12.2-8.3,20.5-8.3s14.9,2.8,20.5,8.3c7.7,7.7,7.2,16.6,7.2,31.6
		C373.4,523.6,373.4,532.5,365.6,540.2L365.6,540.2z M356.8,484.3c-2.8-2.8-7.2-5-11.6-5s-8.9,1.7-11.6,5c-3.9,4.4-4.4,8.3-4.4,24.4
		c0,15.5,0.6,19.9,4.4,24.4c2.8,2.8,7.2,5,11.6,5s8.9-1.7,11.6-5c3.9-4.4,4.4-8.3,4.4-24.4C361.2,493.2,360.6,488.8,356.8,484.3
		L356.8,484.3z"/>
	<path id="Fill-11" fill="#FFFFFF" d="M417.1,548.5c-16.1,0-27.7-11.1-27.7-27.1v-52H401v51.5c0,10.5,6.1,17.2,16.1,17.2
		c10,0,16.1-6.6,16.1-17.2v-51.5h11.6v52C445.3,537.5,433.1,548.5,417.1,548.5"/>
	<path id="Fill-12" fill="#FFFFFF" d="M511.7,540.8c-5,5-12.2,7.2-19.9,7.2h-27.1v-78.6h27.1c8.3,0,14.9,2.2,19.9,7.2
		c8.3,8.3,7.7,19.9,7.7,31C519.5,519.7,520,531.9,511.7,540.8L511.7,540.8z M503.4,485.4c-3.3-3.9-7.7-5.5-13.3-5.5h-14.4v57h14.4
		c5.5,0,10-1.7,13.3-5.5c3.9-4.4,3.9-12.7,3.9-23.8C507.9,497.6,507.9,489.9,503.4,485.4L503.4,485.4z"/>
	<path id="Fill-13" fill="#FFFFFF" d="M537.2,548v-78.6h11.6v67.5h37.6V548H537.2"/>
	<path id="Fill-14" fill="#FFFFFF" d="M616.4,515.9V548h-11.6v-32.1l-23.2-45.9h12.7l16.1,34.3l16.1-34.3H639L616.4,515.9"/>
</g>
<g id="Engineered">
	<path id="Fill-15" fill="#FFFFFF" d="M176.3,634.3l0.6-55.4h34.9v7.7h-26.6v16.1h22.7v7.2h-22.7v16.6h26.6v7.7L176.3,634.3"/>
	<path id="Fill-16" fill="#FFFFFF" d="M256.6,634.9l-24.9-38.7l-0.6,38.7h-8.3l0.6-55.4h7.7l24.9,38.7l0.6-38.7h8.3l-0.6,55.4H256.6
		"/>
	<path id="Fill-17" fill="#FFFFFF" d="M311.4,629.3c-4.4,4.4-9.4,6.1-14.9,6.1s-10.5-2.2-14.4-6.1c-5.5-5.5-5-11.6-5-22.1
		c0-10.5,0-16.6,5.5-22.1c3.9-3.9,8.9-6.1,14.4-5.5c11.6,0,18.3,7.7,19.9,17.2h-8.3c-1.1-6.1-5.5-9.4-11.6-10
		c-3.3,0-6.1,1.1-8.3,3.3c-2.8,2.8-3.3,6.1-3.3,17.2s0.6,14.4,3.3,17.2c1.7,2.2,5,3.3,8.3,3.3c3.9,0,6.6-1.1,8.9-3.9
		c2.2-2.2,2.8-5,2.8-8.9v-3.3H297v-7.2h19.9v8.3C316.3,621,314.7,625.5,311.4,629.3"/>
	<path id="Fill-18" fill="#FFFFFF" d="M328.5,635.4l0.6-55.4h8.3l-0.6,55.4H328.5"/>
	<path id="Fill-19" fill="#FFFFFF" d="M384.4,636l-24.9-38.7L359,636h-8.3l0.6-55.4h7.7l24.9,38.7l0.6-38.7h8.3l-0.6,55.4H384.4"/>
	<path id="Fill-20" fill="#FFFFFF" d="M406.6,636l0.6-55.4H442v7.7h-26.6v16.1h22.7v7.2h-22.7v16.6H442v7.7L406.6,636"/>
	<path id="Fill-21" fill="#FFFFFF" d="M453.1,636.5l0.6-55.4h34.9v7.7h-26.6V605h22.7v7.2h-22.7v16.6h26.6v7.7L453.1,636.5"/>
	<path id="Fill-22" fill="#FFFFFF" d="M529.5,637.1l-11.6-23.2h-10.5v23.2H499l0.6-55.4h21c10.5,0,17.2,6.6,17.2,16.1
		c0,7.7-5,12.7-11.1,14.4l12.2,24.4L529.5,637.1L529.5,637.1z M520,588.9h-12.2v17.2H520c5.5,0,9.4-3.3,9.4-8.3
		C529.5,592.3,525.6,588.9,520,588.9L520,588.9z"/>
	<path id="Fill-23" fill="#FFFFFF" d="M549.9,637.1l0.6-55.4h34.9v7.7h-26.6v16.1h22.7v7.2h-22.7v16.6h26.6v7.7L549.9,637.1"/>
	<path id="Fill-24" fill="#FFFFFF" d="M629.6,632.7c-3.3,3.3-8.3,5-14.4,5h-19.4l0.6-55.4h19.4c5.5,0,10.5,1.7,14.4,5.5
		c6.1,6.1,5.5,13.8,5.5,22.1C635.2,617.7,635.7,626.6,629.6,632.7L629.6,632.7z M624.1,593.9c-2.2-2.8-5.5-3.9-9.4-3.9h-10
		l-0.6,39.9h10c3.9,0,7.2-1.1,9.4-3.9c2.8-3.3,2.8-8.9,3.3-16.6C626.9,602.2,626.9,596.7,624.1,593.9L624.1,593.9z"/>
</g>
<g id="USA">
	<path id="Fill-25" fill="#FFFFFF" d="M241.6,867.9c-39.3,0-70.8-27.1-70.8-68.1V672.5h37.6v125.6c0,22.1,12.7,35.4,33.2,35.4
		s33.8-13.3,33.8-35.4V672.5h37.1v127.3C312.5,841.3,280.9,867.9,241.6,867.9"/>
	<path id="Fill-26" fill="#FFFFFF" d="M407.1,867.9c-29.3,0-51.5-6.1-70.3-25.5l24.4-24.4c12.2,12.2,28.8,16.1,46.5,16.1
		c22.1,0,34.3-8.3,34.3-23.8c0-6.6-1.7-12.7-6.1-16.1c-3.9-3.3-8.3-5.5-17.2-6.6l-23.2-3.3c-16.6-2.2-28.8-7.7-37.1-16.1
		c-9.4-9.4-13.8-21.6-13.8-38.2c0-34.3,25.5-58.7,67-58.7c26.6,0,45.4,6.6,62,22.7l-23.8,23.8c-12.2-11.6-26.6-13.3-39.3-13.3
		c-19.9,0-29.9,11.1-29.9,24.4c0,5,1.7,10,5.5,13.8c3.9,3.3,10,6.6,17.7,7.7l22.7,3.3c17.7,2.2,28.8,7.2,36.5,14.9
		c10.5,10,14.9,23.8,14.9,41C478.5,846.9,447.5,867.9,407.1,867.9"/>
	<path id="Fill-27" fill="#FFFFFF" d="M618,866.2l-11.1-34.3h-68.6l-11.6,34.3h-39.3l69.7-193.7h29.3l70.3,193.7H618L618,866.2z
		 M573.2,730.1l-24.4,70.3h47.6L573.2,730.1L573.2,730.1z"/>
</g>
</svg>
