<svg version="1.1" id="Superior-Icon" xmlns="http://www.w3.org/2000/svg" xmlns:xlink="http://www.w3.org/1999/xlink" x="0px"
	 y="0px" viewBox="0 0 765 1024" enable-background="new 0 0 765 1024" xml:space="preserve">
<g>
	<path id="Fill-1" fill="#EC1C2C" d="M121.7,683.2H702V176c0,0-234.7-166.9-290.1-166.9S121.7,179.2,121.7,179.2L121.7,683.2"/>
	<path id="Fill-2" fill="#EC1C2C" d="M411.9,1023.5c-12.3,0-24-3.2-34.7-9.1L147.9,881.6c-21.3-12.3-34.7-35.2-34.7-59.7V202.7
		c0-24.5,13.3-47.5,34.7-59.7L377.2,10.1c20.8-12.3,48-12.3,68.8,0l229.3,132.8c21.3,12.3,34.7,35.2,34.7,59.7v619.2
		c0,24.5-13.3,47.5-34.7,59.7L446,1014.4C435.9,1020.3,423.6,1023.5,411.9,1023.5L411.9,1023.5z M411.9,17.1
		c-9.1,0-18.1,2.7-26.1,6.9L156.4,156.8c-16,9.6-26.1,26.7-26.1,45.3v619.2c0,18.7,10.1,36.3,26.1,45.3l229.3,132.8
		c16,9.1,36.3,9.1,52.3,0l229.3-132.8c16-9.6,26.1-26.7,26.1-45.3V202.7c0-18.7-10.1-36.3-26.1-45.3L438,24
		C430,19.7,420.9,17.1,411.9,17.1L411.9,17.1z"/>
	<path id="Fill-3" fill="#EC1C2C" d="M321.7,976l-8.5-14.4l290.1-168l8.5,14.4L321.7,976"/>
	<path id="Fill-4" fill="#EC1C2C" d="M223.6,921.1l-8.5-14.4l290.1-168l8.5,14.4L223.6,921.1"/>
	<path id="star-left" fill="#FFFFFF" d="M246,254.9l-10.1,30.9h-32.5l26.1,19.2l-9.6,30.9l26.1-19.2l26.1,19.2L262,305.1l26.1-19.2
		h-32.5L246,254.9"/>
	<path id="star-right" fill="#FFFFFF" d="M581.5,254.9l-10.1,30.9h-32l26.1,19.2L555.3,336l26.1-19.2l26.1,19.2l-10.1-30.9
		l26.1-19.2h-32.5L581.5,254.9"/>
	<path id="blender" fill="#FFFFFF" d="M381.5,273.1h58.7c1.6,0,2.7-1.1,2.7-2.7c0-1.6-1.1-2.7-2.7-2.7h-58.7c-1.6,0-2.7,1.1-2.7,2.7
		C379.3,272,380.4,273.1,381.5,273.1L381.5,273.1z M381.5,294.4h58.7c1.6,0,2.7-1.1,2.7-2.7c0-1.6-1.1-2.7-2.7-2.7h-58.7
		c-1.6,0-2.7,1.1-2.7,2.7C379.3,293.3,380.4,294.4,381.5,294.4L381.5,294.4z M381.5,230.9h58.7c1.6,0,2.7-1.1,2.7-2.7
		c0-1.6-1.1-2.7-2.7-2.7h-58.7c-1.6,0-2.7,1.1-2.7,2.7C379.3,229.3,380.4,230.9,381.5,230.9L381.5,230.9z M381.5,251.7h58.7
		c1.6,0,2.7-1.1,2.7-2.7c0-1.6-1.1-2.7-2.7-2.7h-58.7c-1.6,0-2.7,1.1-2.7,2.7C379.3,250.7,380.4,251.7,381.5,251.7L381.5,251.7z
		 M310.5,104.5c1.1,0,3.7,1.6,5.9,3.2l8.5,5.9c2.1,1.6,3.7,4.8,4.3,6.9l11.2,187.7c0,2.1,0.5,5.9,1.1,7.5c0.5,1.6,8.5,5.3,8.5,7.5
		v28.3c0,2.1,0.5,5.3,1.1,6.4s5.9,2.1,8.5,2.1h105.6c2.7,0,5.9-0.5,7.5-1.1c1.6-0.5,2.7-5.3,2.7-7.5v-28.3c0-2.1,1.6-5.3,3.7-6.9
		c0,0,4.8,1.1,5.3-0.5c0-1.6,0.5-5.3,0.5-7.5l8.5-137.6c0-2.1,1.1-4.3,2.1-3.7c1.1,0.5,1.6,2.7,2.1,4.8l5.3,93.3
		c0,2.1,2.7,4.3,5.3,4.3h8c2.7,0,4.8-2.1,5.3-4.3l12.3-136c0-2.1-1.1-5.9-2.7-7.5l-2.7-3.2c-1.6-2.1-4.8-3.7-7.5-3.7l-20.3-2.1
		c-2.7-0.5-4.8-0.5-4.8-1.1s1.1-0.5,2.7-0.5c1.6,0,4.3-1.1,6.9-2.1l4.3-2.1c2.1-1.1,4.3-2.7,4.3-3.7c0-0.5-2.1-1.6-4.3-1.6
		c-2.1,0-3.2-1.1-1.6-2.1c1.6-1.1,2.7-3.2,2.7-3.7c0-1.1-2.1-1.6-4.8-1.6h-25.6c-2.7,0-4.8-0.5-4.8-1.1c0-0.5-2.1-1.1-4.8-1.1H352.7
		c-2.7,0-4.8,0.5-4.8,1.1c0,0.5-2.1,1.1-4.8,1.1h-24c-2.7,0-4.8,0.5-4.8,1.6s-1.1,4.8-1.1,4.8c-2.7,0-4.8,0.5-4.8,1.6
		C308.4,102.9,309.5,104,310.5,104.5L310.5,104.5z M495.6,125.3c0-2.1,2.7-4.3,5.3-3.7l14.9,1.6c2.7,0.5,5.9,1.6,6.4,2.7
		c1.1,1.1,1.6,3.7,1.1,6.4l-11.7,118.4c0,2.1-0.5,2.1-0.5,0l-4.3-80c0-2.1-0.5-5.9-0.5-7.5c0-1.6-1.6-3.2-3.2-3.7
		c-1.6-0.5-4.3-1.6-6.4-1.6c-1.6-0.5-2.7-2.7-2.7-5.3L495.6,125.3L495.6,125.3z M464.7,346.7c0,2.1-2.1,4.3-4.8,4.3h-39.5v-12.3
		h10.7c8.5,0,17.6-2.1,20.3-4.3c2.1-2.1,3.7-4.8,2.7-5.9c-1.1-1.1-3.2,0-4.8,2.1c-1.6,2.1-10.7,3.7-19.2,3.7h-8.5v-1.1
		c0-3.2-2.7-5.3-5.3-5.3h-1.1c-3.2,0-5.3,2.7-5.3,5.3v1.1h-4.8l0,0h-8.5c-8.5,0-17.6-1.6-19.2-3.7s-4.3-2.7-4.8-2.1
		c-1.1,1.1,0.5,3.2,2.7,5.9c2.1,2.1,11.2,4.3,20.3,4.3h5.3l0,0h10.1v12.3h-43.7c-2.7,0-4.8-2.1-4.8-4.3v-23.5c0-2.1,2.1-4.3,4.8-3.7
		l41.6,2.1c2.7,0,5.3,0,6.4,0s3.7,0,6.4,0l41.6-2.1c2.7,0,4.8,1.6,4.8,3.7v23.5H464.7z M344.1,127.5h25.1c2.7,0,5.3,1.1,5.3,2.7
		c0.5,1.6,2.7,2.7,5.3,2.7h63.5c2.7,0,5.3-1.1,5.3-2.7c0.5-1.6,2.7-2.7,5.3-2.7h26.1c2.7,0,4.8,2.1,4.8,4.3l-10.7,173.9
		c0,2.1-0.5,4.3-0.5,4.3c-0.5,0-2.7,0-5.3,0.5l-49.6,2.7c-2.7,0-5.3,0-6.4,0s-3.7,0-6.4,0l-49.6-2.7c-2.7,0-5.3-0.5-5.3-0.5
		c-0.5,0-0.5-2.1-0.5-4.3l-10.7-173.9C339.3,129.1,341.5,127.5,344.1,127.5L344.1,127.5z M512.1,423.5c-0.5-4.3-4.3-9.6-8.5-11.7
		l-3.7-2.1c-3.7-2.1-8.5-7.5-10.1-11.2l-8-17.6c-1.6-4.3-6.9-7.5-11.2-7.5H351.6c-4.3,0-9.6,3.2-11.2,7.5l-8,17.6
		c-1.6,4.3-6.4,9.1-10.1,11.2l-3.7,2.1c-3.7,2.1-7.5,7.5-8.5,11.7l-20.3,121.1c-0.5,4.3,1.1,10.7,3.7,13.9c2.7,3.2,7.5,5.9,10.7,5.9
		c3.2,0,6.4,2.1,7.5,4.8c1.1,2.7,3.7,4.8,5.9,4.8c2.7,0,5.9-1.6,7.5-3.2c1.6-1.6,6.9-3.2,11.2-3.2H486c4.3,0,9.6,1.6,11.2,3.2
		c1.6,1.6,5.3,3.2,7.5,3.2c2.7,0,5.3-2.1,5.9-4.8c1.1-2.7,4.3-4.8,7.5-4.8c3.2,0,8-2.7,10.7-5.9c2.7-3.2,4.3-9.6,3.7-13.9
		L512.1,423.5L512.1,423.5z M472.1,416.5H350c-5.9,0-9.1-4.3-6.9-10.1l4.3-11.7c2.1-5.3,8.5-10.1,14.4-10.1h97.6
		c5.9,0,12.3,4.3,14.4,10.1l4.3,11.7C480.7,412.3,478,416.5,472.1,416.5L472.1,416.5z"/>
	<path id="Fill-8" fill="#FFFFFF" d="M741.5,708.3H121.7v118.9h619.7l-34.1-58.7L741.5,708.3"/>
	<path id="Fill-9" fill="#EC1C2C" d="M755.9,835.2H113.2V699.7h642.1L716.4,768L755.9,835.2L755.9,835.2z M129.7,818.7h596.8
		L697.2,768l29.3-51.7H129.2v102.4H129.7z"/>
	<path id="Fill-10" fill="#FFFFFF" d="M20.4,539.7H702v167.5H20.4L68.9,624L20.4,539.7"/>
	<path id="Fill-11" fill="#EC1C2C" d="M710,715.7H6L59.3,624L6,531.2h704V715.7L710,715.7z M34.8,698.7H694V547.7H34.3L78,624
		L34.8,698.7L34.8,698.7z"/>
	<g>
		<path id="Fill-12" fill="#58595B" d="M120.7,671.5c-13.3,0-23.5-2.7-32-11.7l11.2-11.2c5.3,5.3,13.3,7.5,21.3,7.5
			c10.1,0,15.5-3.7,15.5-10.7c0-3.2-1.1-5.9-2.7-7.5c-1.6-1.6-3.7-2.7-8-3.2l-10.7-1.6c-7.5-1.1-13.3-3.7-17.1-7.5
			c-4.3-4.3-6.4-10.1-6.4-17.6c0-16,11.7-26.7,30.9-26.7c12.3,0,20.8,3.2,28.3,10.1l-10.7,10.7c-5.3-5.3-12.3-5.9-18.1-5.9
			c-9.1,0-13.9,5.3-13.9,11.2c0,2.1,0.5,4.8,2.7,6.4c1.6,1.6,4.8,3.2,8,3.7l10.7,1.6c8,1.1,13.3,3.2,17.1,6.9
			c4.8,4.3,6.9,10.7,6.9,18.7C153.2,661.9,139.3,671.5,120.7,671.5"/>
		<path id="Fill-13" fill="#58595B" d="M200.7,671.5c-18.1,0-32.5-12.3-32.5-30.9v-58.1h17.1V640c0,10.1,5.9,16.5,15.5,16.5
			c9.1,0,15.5-5.9,15.5-16.5v-57.6h17.1v58.1C233.2,659.2,218.8,671.5,200.7,671.5"/>
		<path id="Fill-14" fill="#58595B" d="M286.5,637.3h-17.1v33.1h-17.1v-88.5h34.1c18.1,0,29.3,12.8,29.3,27.7
			C315.9,624.5,304.7,637.3,286.5,637.3L286.5,637.3z M285.5,597.9h-16v24h16c8,0,12.8-4.8,12.8-12.3S293.5,597.9,285.5,597.9
			L285.5,597.9z"/>
		<path id="Fill-15" fill="#58595B" d="M330.3,670.9v-88.5h58.1v15.5h-41.1v20.8H382v15.5h-34.7v21.3h41.1v15.5L330.3,670.9"/>
		<path id="Fill-16" fill="#58595B" d="M451.9,670.9l-17.1-35.2H422v35.2h-17.1v-88.5h34.7c18.1,0,28.8,12.3,28.8,27.2
			c0,12.3-7.5,20.3-16,23.5l19.7,37.9H451.9L451.9,670.9z M438.5,597.9h-16v23.5h16c7.5,0,12.3-4.8,12.3-11.7
			C450.8,602.7,446,597.9,438.5,597.9L438.5,597.9z"/>
		<path id="Fill-17" fill="#58595B" d="M486,582.4h17.1v88.5H486V582.4z"/>
		<path id="Fill-18" fill="#58595B" d="M577.2,661.9c-6.4,6.4-13.9,9.6-24,9.6s-17.6-3.7-24-9.6c-9.1-9.1-8.5-19.7-8.5-35.2
			s0-26.1,8.5-35.2c6.4-6.4,13.9-9.6,24-9.6s17.6,3.7,24,9.6c9.1,9.1,8.5,19.7,8.5,35.2S586.3,652.8,577.2,661.9L577.2,661.9z
			 M564.4,601.6c-2.7-2.7-6.4-4.8-11.2-4.8s-8.5,1.6-11.2,4.8c-3.2,3.7-4.3,8-4.3,25.1s1.1,21.3,4.3,25.1c2.7,2.7,6.4,4.8,11.2,4.8
			s8.5-1.6,11.2-4.8c3.2-3.7,4.3-8,4.3-25.1S567.6,605.3,564.4,601.6L564.4,601.6z"/>
		<path id="Fill-19" fill="#58595B" d="M650.3,670.9l-17.1-35.2h-12.3v35.2h-17.6v-88.5H638c18.1,0,28.8,12.3,28.8,27.2
			c0,12.3-7.5,20.3-16,23.5l19.7,37.9H650.3L650.3,670.9z M636.9,597.9h-16v23.5h16c7.5,0,12.3-4.8,12.3-11.7
			C649.2,602.7,644.4,597.9,636.9,597.9L636.9,597.9z"/>
	</g>
	<g>
		<path id="Fill-20" fill="#58595B" d="M174,749.3v48.5h-5.3v-48.5h-14.4V744h34.1v5.3H174"/>
		<path id="Fill-21" fill="#58595B" d="M224.1,793.1c-3.2,3.7-8,5.3-12.8,5.3c-4.8,0-9.6-2.1-12.8-5.3c-4.8-4.8-4.8-10.1-4.8-21.9
			c0-11.2,0-16.5,4.8-21.9c3.2-3.7,8-5.3,12.8-5.3c4.8,0,9.6,2.1,12.8,5.3c4.8,4.8,4.8,10.1,4.8,21.9
			C228.9,782.4,228.9,787.7,224.1,793.1L224.1,793.1z M220.4,752.5c-2.1-2.7-5.3-3.7-8.5-3.7s-6.4,1.6-8.5,3.7
			c-3.2,3.7-3.7,6.9-3.7,18.1c0,11.2,0.5,14.9,3.7,18.1c2.1,2.7,5.3,3.7,8.5,3.7s6.4-1.6,8.5-3.7c3.2-3.7,3.7-6.9,3.7-18.1
			C223.6,760,223.1,756.3,220.4,752.5L220.4,752.5z"/>
		<path id="Fill-22" fill="#58595B" d="M259.9,776h-13.3v22.4h-5.3v-53.9h18.7c9.1,0,15.5,5.9,15.5,16
			C275.3,769.6,268.9,776,259.9,776L259.9,776z M259.3,749.3h-12.8v21.3h12.8c6.4,0,10.7-3.7,10.7-10.7S265.7,749.3,259.3,749.3
			L259.3,749.3z"/>
		<path id="Fill-23" fill="#58595B" d="M317.5,749.3v48.5h-5.3v-48.5h-14.4V744h34.1v5.3H317.5"/>
		<path id="Fill-24" fill="#58595B" d="M368.1,793.1c-3.2,3.7-8,5.3-12.8,5.3s-9.6-2.1-12.8-5.3c-4.8-4.8-4.8-10.1-4.8-21.9
			c0-11.2,0-16.5,4.8-21.9c3.2-3.7,8-5.3,12.8-5.3s9.6,2.1,12.8,5.3c4.8,4.8,4.8,10.1,4.8,21.9C372.9,782.4,372.9,787.7,368.1,793.1
			L368.1,793.1z M363.9,752.5c-2.1-2.7-5.3-3.7-8.5-3.7s-6.4,1.6-8.5,3.7c-3.2,3.7-3.7,6.9-3.7,18.1c0,11.2,0.5,14.9,3.7,18.1
			c2.1,2.7,5.3,3.7,8.5,3.7s6.4-1.6,8.5-3.7c3.2-3.7,3.7-6.9,3.7-18.1C367.6,760,367.1,756.3,363.9,752.5L363.9,752.5z"/>
		<path id="Fill-25" fill="#58595B" d="M422,797.9h-19.2V744h18.7c8.5,0,14.9,5.3,14.9,14.4c0,5.9-3.2,10.1-7.5,11.7
			c4.8,2.1,8,6.4,8,12.8C436.9,793.1,430.5,797.9,422,797.9L422,797.9z M420.9,749.3h-12.8V768h12.8c5.3,0,9.6-3.2,9.6-9.6
			C430.5,752,426.3,749.3,420.9,749.3L420.9,749.3z M421.5,773.3h-13.3v19.7h13.3c6.4,0,10.1-3.7,10.1-10.1
			C431.6,776.5,427.9,773.3,421.5,773.3L421.5,773.3z"/>
		<path id="Fill-26" fill="#58595B" d="M477.5,793.1c-3.2,3.7-8,5.3-12.8,5.3c-4.8,0-9.6-2.1-12.8-5.3c-4.8-4.8-4.8-10.1-4.8-21.9
			c0-11.2,0-16.5,4.8-21.9c3.2-3.7,8-5.3,12.8-5.3c4.8,0,9.6,2.1,12.8,5.3c4.8,4.8,4.8,10.1,4.8,21.9
			C482.3,782.4,482.3,787.7,477.5,793.1L477.5,793.1z M473.2,752.5c-2.1-2.7-5.3-3.7-8.5-3.7c-3.2,0-6.4,1.6-8.5,3.7
			c-3.2,3.7-3.7,6.9-3.7,18.1c0,11.2,0.5,14.9,3.7,18.1c2.1,2.7,5.3,3.7,8.5,3.7c3.2,0,6.4-1.6,8.5-3.7c3.2-3.7,3.7-6.9,3.7-18.1
			C476.9,760,476.4,756.3,473.2,752.5L473.2,752.5z"/>
		<path id="Fill-27" fill="#58595B" d="M507.9,749.3v48.5h-5.3v-48.5h-14.4V744h34.1v5.3H507.9"/>
		<path id="Fill-28" fill="#58595B" d="M546.3,749.3v48.5h-5.3v-48.5h-14.4V744h34.1v5.3H546.3"/>
		<path id="Fill-29" fill="#58595B" d="M596.9,793.1c-3.2,3.7-8,5.3-12.8,5.3s-9.6-2.1-12.8-5.3c-4.8-4.8-4.8-10.1-4.8-21.9
			c0-11.2,0-16.5,4.8-21.9c3.2-3.7,8-5.3,12.8-5.3s9.6,2.1,12.8,5.3c4.8,4.8,4.8,10.1,4.8,21.9C601.2,782.4,601.2,787.7,596.9,793.1
			L596.9,793.1z M592.7,752.5c-2.1-2.7-5.3-3.7-8.5-3.7s-6.4,1.6-8.5,3.7c-3.2,3.7-3.7,6.9-3.7,18.1c0,11.2,0.5,14.9,3.7,18.1
			c2.1,2.7,5.3,3.7,8.5,3.7s6.4-1.6,8.5-3.7c3.2-3.7,3.7-6.9,3.7-18.1C595.9,760,595.9,756.3,592.7,752.5L592.7,752.5z"/>
		<path id="Fill-30" fill="#58595B" d="M651.3,797.9v-40.5l-13.9,32.5h-4.8l-13.3-32.5v41.1H614v-53.9h5.3l16,38.4l16-38.4h5.3v53.9
			h-5.3"/>
	</g>
</g>
</svg>
