<?xml version="1.0" encoding="utf-8"?>
<!-- Generator: Adobe Illustrator 18.1.0, SVG Export Plug-In . SVG Version: 6.00 Build 0)  -->
<!DOCTYPE svg PUBLIC "-//W3C//DTD SVG 1.1//EN" "http://www.w3.org/Graphics/SVG/1.1/DTD/svg11.dtd">
<svg version="1.1" id="Layer_1" xmlns="http://www.w3.org/2000/svg" xmlns:xlink="http://www.w3.org/1999/xlink" x="0px" y="0px"
	 viewBox="0 0 765 1024" enable-background="new 0 0 765 1024" xml:space="preserve">
<path id="Fill-1" fill="#EC1C2C" d="M66.1,523.2h576.7v-347c0,0-232.9-166.1-288.6-166.1c-55.2,0-288.6,169.8-288.6,169.8v343.3"/>
<path id="Fill-2" fill="#EC1C2C" d="M354.8,1020.3c-12.2,0-23.9-3.2-34.5-9L92.1,879.2c-21.2-12.2-34.5-35-34.5-59.4V202.7
	c0-24.4,13.3-47.2,34.5-59.4L320.3,11.2c21.2-12.2,47.8-12.2,68.4,0l228.1,132.1c21.2,12.2,34.5,35,34.5,59.4v616
	c0,24.4-13.3,47.2-34.5,59.4l-228.1,132.1C378.6,1017.1,367,1020.3,354.8,1020.3L354.8,1020.3z M354.8,18c-9,0-18,2.7-26,6.9
	L100.6,157.1c-15.9,9.6-26,26.5-26,45.1v616c0,18.6,10.1,36.1,26,45.1l228.1,132.1c15.9,9,36.1,9,52,0l228.1-132.1
	c15.9-9.6,26-26.5,26-45.1V202.7c0-18.6-10.1-36.1-26-45.1L380.8,25.5C372.8,20.7,363.8,18,354.8,18L354.8,18z"/>
<g id="Stars">
	<path id="Fill-3" fill="#58595B" d="M354.8,849.5l-13.8,43h-45.1l36.6,26.5l-13.8,43l36.6-26.5l36.6,26.5l-13.8-43l36.6-26.5h-45.1
		L354.8,849.5"/>
	<path id="Fill-4" fill="#58595B" d="M460.9,857.4l-6.9,21.2h-22.3l18,13.3l-6.9,21.2l18-13.3l18,13.3l-6.9-21.2l18-13.3h-22.3
		L460.9,857.4"/>
	<path id="Fill-5" fill="#58595B" d="M242.8,857.4l-6.9,21.2h-22.3l18,13.3l-6.9,21.2l18-13.3l18,13.3l-6.9-21.2l18-13.3h-22.3
		L242.8,857.4"/>
</g>
<path id="Fill-6" fill="#FFFFFF" d="M744.2,652.6H66.1v167.1h677.5L695.4,737L744.2,652.6"/>
<path id="Fill-7" fill="#EC1C2C" d="M758,827.7H58.2V644.1H758l-52.5,92.3L758,827.7L758,827.7z M74.6,811.3h655.3l-43.5-74.8
	l43.5-75.9H74.6V811.3L74.6,811.3z"/>
<path id="Fill-8" fill="#FFFFFF" d="M354.2,626.1c-91.8,0-164.5-58.9-164.5-156c0-64.2,36.1-103.5,73.7-125.7
	c-34.5-21.2-64.7-58.9-64.7-115.7c0-89.7,68.4-148.6,155.5-148.6S510.8,139,510.8,228.7c0,56.8-30.2,94.4-64.7,115.7
	c37.7,22.8,73.7,62.1,73.7,125.7C519.8,567.2,446,626.1,354.2,626.1L354.2,626.1z M354.2,378.8c-49.3,0-88.1,39.8-88.1,89.7
	s38.2,89.1,88.1,89.1s88.1-39.3,88.1-89.1S404.1,378.8,354.2,378.8L354.2,378.8z M354.2,148.6c-46.7,0-79.1,35.5-79.1,82.2
	c0,47.8,32.4,81.7,79.1,81.7s79.6-34,79.6-81.7C433.8,184.1,400.9,148.6,354.2,148.6L354.2,148.6z"/>
<path id="Fill-9" fill="#FFFFFF" d="M27.9,523.2h614.9v128.4H27.9l36.6-63.7L27.9,523.2"/>
<path id="Fill-10" fill="#EC1C2C" d="M651.4,659.5H13.6l41.9-71.6l-41.9-72.7h637.7L651.4,659.5L651.4,659.5z M42.3,643.1h592.6
	V531.6H42.3l32.4,56.2L42.3,643.1L42.3,643.1z"/>
<g id="Year">
	<path id="Fill-11" fill="#58595B" d="M252.9,595.3v34h-8.5v-34L220,547h9.6l19.1,39.3l19.1-39.3h9.6L252.9,595.3"/>
	<path id="Fill-12" fill="#58595B" d="M289.5,629.3V547h50.9v8h-41.9v29.2h36.1v8h-36.1v29.7h41.9v8h-50.9"/>
	<path id="Fill-13" fill="#58595B" d="M406.2,629.3l-6.4-18.6h-35.5l-6.4,18.6h-9.6l30.2-82.2h7.4l29.7,82.2H406.2L406.2,629.3z
		 M381.8,559.8l-15.4,43.5h30.8L381.8,559.8L381.8,559.8z"/>
	<path id="Fill-14" fill="#58595B" d="M475.7,629.3l-18.6-36.6h-19.6v36.6H429V547h31.3c14.3,0,24.4,8.5,24.4,22.8
		c0,12.2-7.4,19.6-18,22.3l19.6,37.1H475.7L475.7,629.3z M459.3,555h-21.8v30.2h21.8c9.6,0,16.4-4.8,16.4-14.9
		C475.7,559.8,468.8,555,459.3,555L459.3,555z"/>
</g>
<g id="Warranty">
	<path id="Fill-15" fill="#58595B" d="M168.5,777.3h-12.7l-14.3-47.2l-14.3,47.2h-12.7l-20.7-78h15.9l12.2,49.3l14.3-49.3h11.1
		l14.3,49.3l12.2-49.3h15.9L168.5,777.3"/>
	<path id="Fill-16" fill="#58595B" d="M237.5,777.3l-4.8-13.8h-27.6l-4.8,13.8h-15.9l28.1-78h12.2l28.1,78H237.5L237.5,777.3z
		 M219.5,722.6l-9.6,28.1H229L219.5,722.6L219.5,722.6z"/>
	<path id="Fill-17" fill="#58595B" d="M303.8,777.3L288.4,746h-10.6v31.3h-15.4v-78h30.2c15.9,0,24.9,10.6,24.9,23.9
		c0,11.1-6.9,17.5-14.3,20.7l17.5,33.4H303.8L303.8,777.3z M292.2,713.1h-14.3v20.7h14.3c6.9,0,11.1-4.2,11.1-10.1
		C303.3,717.3,298.5,713.1,292.2,713.1L292.2,713.1z"/>
	<path id="Fill-18" fill="#58595B" d="M372.8,777.3L357.4,746h-10.6v31.3h-15.4v-78h30.2c15.9,0,24.9,10.6,24.9,23.9
		c0,11.1-6.9,17.5-14.3,20.7l17.5,33.4H372.8L372.8,777.3z M361.1,713.1h-14.3v20.7h14.3c6.9,0,11.1-4.2,11.1-10.1
		C372.3,717.3,368,713.1,361.1,713.1L361.1,713.1z"/>
	<path id="Fill-19" fill="#58595B" d="M447.1,777.3l-4.8-13.8h-27.6l-4.8,13.8H394l28.1-78h11.7l28.1,78H447.1L447.1,777.3z
		 M429,722.6l-9.6,28.1h19.1L429,722.6L429,722.6z"/>
	<path id="Fill-20" fill="#58595B" d="M513.9,777.3l-30.8-47.8v47.8h-15.4v-78H481l30.8,47.8v-47.8h15.4v78H513.9"/>
	<path id="Fill-21" fill="#58595B" d="M572.8,713.1v64.2h-15.4v-64.2h-19.6v-13.8h55.7v13.8H572.8"/>
	<path id="Fill-22" fill="#58595B" d="M634.9,745.5v31.8h-14.9v-31.8l-23.3-46.2h16.4l14.3,31.3l14.3-31.3h16.4L634.9,745.5"/>
</g>
</svg>
